HIERARCHY
ROOT Hips
{
 OFFSET 0.000000 0.000000 0.000000
 CHANNELS 6 Xposition Yposition Zposition Yrotation Xrotation Zrotation
 JOINT Chest
 {
  OFFSET 0.000000 9.585900 0.002600
  CHANNELS 3 Yrotation Xrotation Zrotation
  JOINT Chest2
  {
   OFFSET 0.000000 9.601200 -0.005300
   CHANNELS 3 Yrotation Xrotation Zrotation
   JOINT Chest3
   {
    OFFSET 0.000000 9.561800 0.000000
    CHANNELS 3 Yrotation Xrotation Zrotation
    JOINT Chest4
    {
     OFFSET 0.000000 9.552100 0.000000
     CHANNELS 3 Yrotation Xrotation Zrotation
     JOINT Neck
     {
      OFFSET 0.000000 14.453000 0.000000
      CHANNELS 3 Yrotation Xrotation Zrotation
      JOINT Head
      {
       OFFSET 0.000000 8.936500 -0.011300
       CHANNELS 3 Yrotation Xrotation Zrotation
       End Site
       {
        OFFSET 0.000000 17.073600 -0.006000
       }
      }
     }
     JOINT RightCollar
     {
      OFFSET -2.921100 9.558500 0.000000
      CHANNELS 3 Yrotation Xrotation Zrotation
      JOINT RightShoulder
      {
       OFFSET -13.519700 0.000000 0.000000
       CHANNELS 3 Yrotation Xrotation Zrotation
       JOINT RightElbow
       {
        OFFSET 0.000000 -29.696600 0.000000
        CHANNELS 3 Yrotation Xrotation Zrotation
        JOINT RightWrist
        {
         OFFSET 0.000000 -24.004700 0.000000
         CHANNELS 3 Yrotation Xrotation Zrotation
         End Site
         {
          OFFSET 0.000000 -17.728500 0.000000
         }
        }
       }
      }
     }
     JOINT LeftCollar
     {
      OFFSET 2.921100 9.558500 0.000000
      CHANNELS 3 Yrotation Xrotation Zrotation
      JOINT LeftShoulder
      {
       OFFSET 13.519700 0.000000 0.000000
       CHANNELS 3 Yrotation Xrotation Zrotation
       JOINT LeftElbow
       {
        OFFSET 0.000000 -29.696600 0.000000
        CHANNELS 3 Yrotation Xrotation Zrotation
        JOINT LeftWrist
        {
         OFFSET 0.000000 -24.004700 0.000000
         CHANNELS 3 Yrotation Xrotation Zrotation
         End Site
         {
          OFFSET 0.000000 -17.728500 0.000000
         }
        }
       }
      }
     }
    }
   }
  }
 }
 JOINT RightHip
 {
  OFFSET -7.771700 -0.012900 -0.001300
  CHANNELS 3 Yrotation Xrotation Zrotation
  JOINT RightKnee
  {
   OFFSET 0.000000 -40.869800 0.001200
   CHANNELS 3 Yrotation Xrotation Zrotation
   JOINT RightAnkle
   {
    OFFSET 0.000000 -39.717900 0.002100
    CHANNELS 3 Yrotation Xrotation Zrotation
    JOINT RightToe
    {
     OFFSET 0.000000 -4.965400 11.033500
     CHANNELS 3 Yrotation Xrotation Zrotation
     End Site
     {
      OFFSET 0.000000 -1.423100 5.872300
     }
    }
   }
  }
 }
 JOINT LeftHip
 {
  OFFSET 7.771700 -0.012900 -0.001300
  CHANNELS 3 Yrotation Xrotation Zrotation
  JOINT LeftKnee
  {
   OFFSET 0.000000 -40.869800 0.001200
   CHANNELS 3 Yrotation Xrotation Zrotation
   JOINT LeftAnkle
   {
    OFFSET 0.000000 -39.717900 0.002100
    CHANNELS 3 Yrotation Xrotation Zrotation
    JOINT LeftToe
    {
     OFFSET 0.000000 -4.965400 11.033500
     CHANNELS 3 Yrotation Xrotation Zrotation
     End Site
     {
      OFFSET 0.000000 -1.423100 5.872300
     }
    }
   }
  }
 }
}
MOTION
Frames: 6
Frame Time: 0.008333
-92.266874 57.674094 91.581328 178.407612 -29.942565 -0.516052 2.008727 21.781505 3.042030 0.094376 2.925742 0.374839 0.208531 4.800926 0.617522 1.115440 18.381850 2.532378 0.405565 8.122119 -2.481282 1.992421 -20.642592 -5.073387 3.137984 -4.293310 -1.021484 6.947978 -11.238171 -19.520812 178.708892 -75.709690 -144.912025 11.803614 -12.967421 -44.205879 -6.516337 -4.788630 -3.165558 3.580846 -7.972748 -5.370687 25.271735 -84.631589 -54.002614 -5.510732 -2.192813 11.923198 6.589020 -46.348873 -6.074809 -12.020562 69.716061 -15.305133 10.548192 22.960954 9.192599 -0.424640 -17.437093 1.143791 -5.980202 -42.832003 -0.505549 28.434166 66.540918 26.048721 -15.788751 3.562004 -1.687204 0.292925 0.523446 0.165634
-92.261264 57.673414 91.583252 178.366314 -29.971338 -0.523513 2.025299 21.784585 3.059677 0.100058 2.929657 0.374910 0.197538 4.789477 0.617014 1.104046 18.375148 2.531670 0.440171 8.140734 -2.493634 2.027118 -20.626905 -5.093946 3.143659 -4.290560 -1.032492 6.977534 -11.240673 -19.554966 178.868317 -75.741411 -145.052533 11.823964 -12.992126 -44.193304 -6.523689 -4.826584 -3.141933 3.604265 -7.917136 -5.374570 25.266727 -84.610626 -53.993482 -5.517658 -2.192692 11.916591 6.605090 -46.322232 -6.049576 -12.034257 69.707592 -15.307500 10.601014 22.971618 9.248746 -0.454213 -17.437848 1.105988 -5.945873 -42.797445 -0.410282 28.314590 66.573522 25.898932 -15.893169 3.509596 -1.712106 0.385289 0.566204 0.206352
-92.264654 57.671729 91.586653 178.349737 -29.985231 -0.493058 1.964409 21.750141 3.005965 0.152352 2.974429 0.379878 0.187996 4.780217 0.616467 1.073045 18.351170 2.531147 0.480503 8.175952 -2.507692 2.092523 -20.624419 -5.132317 3.152722 -4.285282 -1.045662 7.001205 -11.246252 -19.586563 178.974614 -75.752966 -145.124145 11.834295 -13.052066 -44.177377 -6.504693 -4.826762 -3.143049 3.601786 -7.899984 -5.356258 25.411894 -84.582208 -54.116163 -5.523925 -2.190785 11.904665 6.658975 -46.304928 -6.105056 -12.167075 69.683472 -15.429675 10.676545 22.963182 9.305617 -0.464667 -17.412055 1.071105 -5.892969 -42.782781 -0.401117 28.326150 66.588079 25.848623 -15.911950 3.504184 -1.644895 0.356356 0.568305 0.192818
-92.271091 57.670125 91.589743 178.376393 -29.997848 -0.470332 1.908110 21.752472 2.959367 0.137500 2.958584 0.378015 0.202283 4.792558 0.616936 1.040233 18.325443 2.533355 0.515715 8.192721 -2.524557 2.220261 -20.599747 -5.203937 3.165564 -4.276260 -1.062751 7.015572 -11.254049 -19.613863 179.129118 -75.758429 -145.233609 11.838098 -13.090008 -44.180975 -6.483075 -4.825265 -3.148040 3.603476 -7.882746 -5.334532 25.419392 -84.564173 -54.130749 -5.505416 -2.195862 11.933745 6.681943 -46.287444 -6.173448 -12.186946 69.676903 -15.442938 10.640664 22.925154 9.302884 -0.422691 -17.357400 1.059316 -5.875453 -42.771859 -0.430619 28.404795 66.591245 25.865575 -15.855838 3.540737 -1.541094 0.250612 0.528966 0.144427
-92.269175 57.668364 91.593373 178.361181 -30.007021 -0.481325 1.907473 21.749671 2.970713 0.116360 2.942667 0.376926 0.199443 4.786809 0.616956 1.034691 18.317146 2.535487 0.544255 8.205904 -2.537686 2.290078 -20.568057 -5.244331 3.192991 -4.248062 -1.080844 7.007284 -11.278058 -19.640844 179.301080 -75.737050 -145.348754 11.818749 -13.068741 -44.191917 -6.461506 -4.822370 -3.155723 3.605690 -7.865202 -5.310071 25.505755 -84.536783 -54.232206 -5.502424 -2.194493 11.947482 6.685559 -46.277483 -6.163799 -12.204778 69.666378 -15.450398 10.642679 22.899802 9.347764 -0.405765 -17.318781 1.011308 -5.853387 -42.756334 -0.364488 28.317571 66.615825 25.752025 -15.883768 3.523538 -1.534190 0.283841 0.537501 0.159840
-92.261337 57.667272 91.595879 178.317365 -30.024445 -0.517262 1.935111 21.740943 3.020510 0.114062 2.939343 0.377206 0.164868 4.747435 0.619177 1.055285 18.342985 2.531605 0.571422 8.221661 -2.547845 2.352557 -20.537429 -5.284936 3.187756 -4.246379 -1.095555 7.025334 -11.273384 -19.660944 179.479829 -75.738396 -145.487146 11.813719 -13.069828 -44.189852 -6.431869 -4.799007 -3.170271 3.606266 -7.856652 -5.297199 25.473544 -84.521749 -54.226167 -5.486115 -2.191539 11.909532 6.688903 -46.261493 -6.115938 -12.284920 69.640316 -15.497458 10.742928 22.924668 9.415130 -0.440952 -17.323900 0.963226 -5.822640 -42.726195 -0.207755 28.108859 66.663404 25.510341 -16.012042 3.452676 -1.583008 0.428633 0.594728 0.232376
